<svg width="1717" height="353" viewBox="0 0 1717 353" fill="none" xmlns="http://www.w3.org/2000/svg">
<path d="M172 25V119.602L115 177.186L172 234.769V328" stroke="#FE7C22" stroke-width="50" stroke-linecap="square"/>
<path d="M238 25V119.602L295 177.186L238 234.769V328" stroke="white" stroke-width="50" stroke-linecap="square"/>
<path d="M95.5 109.5L65 140.321L29 176.43L65 212.539L97.5 245.039" stroke="#FE7C22" stroke-width="40" stroke-linecap="square"/>
<mask id="mask0_64_2" style="mask-type:alpha" maskUnits="userSpaceOnUse" x="395" y="47" width="1322" height="260">
<path fill-rule="evenodd" clip-rule="evenodd" d="M767.5 47.3218L674.5 47.3218L781.5 47.3218L681 47.3218L644.5 48.5404L612.5 47.3218L670 47.6891L537.852 47.3218L578.5 47.4348L464.5 47.3218H395V97.5V305H469L611.5 306.5L529.698 165.857L554.789 151.371L643.5 305L738 302.083L754.5 289.83L831.425 286.098L840.654 302.083L940.874 244.22L900.689 174.617L926.961 159.449L1007 295L1110.89 289.83L1153 277L1212.5 285.5L1238.5 287L1311.06 292.039L1325.65 285.5L1398.25 275.397L1444.5 289.83L1518.5 285.5L1551 281.5L1634.87 291.447L1570.57 180.067L1595.87 165.463L1676 301.5L1716.5 274L1642.5 48.5404L1563 47L1458.5 47.3218H1325.65H1249.5H1287.58H1380H1299.5H1249.5H1177H1152.5H1089H1062.5H990.5L959.5 48.5404L889 47.3218H767.5Z" fill="#D9D9D9"/>
</mask>
<g mask="url(#mask0_64_2)">
<path d="M628.884 164.2C628.884 182.632 624.703 199.869 616.34 215.912C608.148 231.955 596.799 245.352 582.292 256.104L593.044 275.048L555.156 303.72L539.796 276.072C530.068 278.291 520.596 279.4 511.38 279.4C490.047 279.4 470.335 274.28 452.244 264.04C434.324 253.629 420.073 239.635 409.492 222.056C398.911 204.307 393.62 185.021 393.62 164.2C393.62 143.379 398.911 124.179 409.492 106.6C420.073 88.8507 434.324 74.856 452.244 64.616C470.335 54.2053 490.047 49 511.38 49C532.713 49 552.34 54.2053 570.26 64.616C588.351 74.856 602.601 88.8507 613.012 106.6C623.593 124.179 628.884 143.379 628.884 164.2ZM556.948 211.304C563.263 205.16 568.127 198.077 571.54 190.056C574.953 181.864 576.66 173.245 576.66 164.2C576.66 152.253 573.673 141.245 567.7 131.176C561.897 121.107 553.961 113.171 543.892 107.368C533.993 101.395 523.156 98.408 511.38 98.408C499.604 98.408 488.681 101.395 478.612 107.368C468.543 113.171 460.521 121.107 454.548 131.176C448.745 141.245 445.844 152.253 445.844 164.2C445.844 176.147 448.745 187.155 454.548 197.224C460.521 207.293 468.543 215.315 478.612 221.288C488.681 227.091 499.604 229.992 511.38 229.992H514.452L494.228 193.384L531.092 165.736L556.948 211.304Z" fill="white"/>
<path d="M662.5 55.4L739.382 186.472L814.134 55.4H870.71L739.382 281.96L608.31 55.4H662.5Z" fill="white"/>
<path d="M971.142 236.392H863.622L842.886 273H786.31L917.382 46.44L1048.71 273H992.134L971.142 236.392ZM948.358 196.968L917.126 142.44L885.894 196.968H948.358Z" fill="white"/>
<path d="M1066.61 46.44L1235.57 181.352V55.4H1284.98V281.96L1116.27 147.048V273H1066.61V46.44Z" fill="white"/>
<path d="M1494.3 100.968H1424.67V273H1373.47V100.968H1303.83V55.4H1494.3V100.968Z" fill="white"/>
<path d="M1636.64 236.392H1529.12L1508.39 273H1451.81L1582.88 46.44L1714.21 273H1657.63L1636.64 236.392ZM1613.86 196.968L1582.63 142.44L1551.39 196.968H1613.86Z" fill="white"/>
</g>
</svg>
